<?xml version="1.0" encoding="utf-8"?>
<!-- Generator: Adobe Illustrator 24.1.0, SVG Export Plug-In . SVG Version: 6.00 Build 0)  -->
<svg version="1.1" baseProfile="tiny" id="Livello_1"
	 xmlns="http://www.w3.org/2000/svg" xmlns:xlink="http://www.w3.org/1999/xlink" x="0px" y="0px" viewBox="0 0 1024 200"
	 xml:space="preserve">
<g>
	<g>
		<path fill="#FFFFFF" d="M464.62,38.45c0.28-0.07,0.42-0.11,0.71-0.19c0.21,1.7,1.74,3.48,4.41,3.44c2.89-0.04,4.29-1.64,4.26-3.58
			c-0.05-4.77-9.1-3.21-9.17-8.48c-0.03-2.24,2.14-3.95,4.86-3.98c2.69-0.03,4.68,1.59,4.99,3.77c-0.28,0.07-0.42,0.11-0.71,0.18
			c-0.3-2.06-2.23-3.24-4.24-3.22c-2.69,0.03-4.15,1.76-4.13,3.2c0.06,4.65,9.11,3.15,9.17,8.51c0.02,2.12-1.4,4.28-5.02,4.33
			C466.46,42.49,464.73,40.16,464.62,38.45z"/>
		<path fill="#FFFFFF" d="M479.04,34.22c0-0.21,0-0.32-0.01-0.53c-0.05-5.53,3.41-8.16,6.84-8.18c3.4-0.03,6.93,2.55,6.96,8.08
			c0,0.21,0,0.32,0,0.53c0.03,5.53-3.46,8.14-6.84,8.17C482.59,42.31,479.1,39.75,479.04,34.22z M492.08,34.12c0-0.21,0-0.32,0-0.53
			c-0.03-5.15-3.19-7.4-6.19-7.38c-3,0.02-6.12,2.32-6.08,7.47c0,0.21,0,0.32,0.01,0.53c0.05,5.12,3.21,7.36,6.16,7.34
			C488.98,41.52,492.1,39.24,492.08,34.12z"/>
		<path fill="#FFFFFF" d="M497.16,34.09c0-0.21,0-0.32,0-0.53c-0.02-5.53,3.52-8.14,6.8-8.14c2.63,0,4.57,1.35,5.69,3.32
			c-0.25,0.15-0.37,0.23-0.62,0.38c-1.02-1.77-2.66-3-5.07-3c-2.84,0.01-6.05,2.28-6.03,7.44c0,0.21,0,0.32,0,0.53
			c0.02,5.12,3.23,7.38,6.02,7.37c2.4,0,4.06-1.24,5.01-2.95c0.26,0.14,0.39,0.21,0.65,0.35c-1.08,1.94-3.01,3.33-5.62,3.33
			C500.73,42.2,497.19,39.63,497.16,34.09z"/>
		<path fill="#FFFFFF" d="M516.25,42.05c-0.31,0-0.46,0-0.77,0c0.01-6.59,0.02-9.89,0.03-16.48c0.31-0.02,0.46-0.03,0.77-0.06
			C516.27,32.13,516.27,35.43,516.25,42.05z"/>
		<path fill="#FFFFFF" d="M523.83,26.3c-0.01,3.07-0.02,4.61-0.03,7.68c2.62,0.01,3.94,0.02,6.56,0.04c0,0.28,0,0.42,0,0.71
			c-2.62-0.02-3.94-0.02-6.56-0.04c-0.01,2.67-0.02,4.01-0.03,6.68c3.44,0.01,5.16,0.02,8.61,0.05c0,0.28,0,0.42-0.01,0.71
			c-3.74-0.03-5.61-0.04-9.34-0.05c0.03-6.59,0.04-9.89,0.07-16.48c3.76,0.02,5.64,0.03,9.39,0.05c0,0.28,0,0.42,0,0.71
			C529.01,26.32,527.28,26.31,523.83,26.3z"/>
		<path fill="#FFFFFF" d="M544.49,26.45c-1.85-0.02-2.78-0.03-4.63-0.05c-0.06,6.31-0.09,9.47-0.15,15.78c-0.31,0-0.46,0-0.77-0.01
			c0.06-6.31,0.09-9.47,0.14-15.78c-1.84-0.02-2.76-0.02-4.6-0.04c0-0.28,0-0.42,0.01-0.71c4,0.03,6.01,0.05,10.01,0.09
			C544.5,26.03,544.49,26.17,544.49,26.45z"/>
		<path fill="#FFFFFF" d="M554.67,38.41c-3.16-0.04-4.75-0.06-7.91-0.1c-0.55,1.57-0.82,2.36-1.37,3.93c-0.31,0-0.46-0.01-0.77-0.01
			c2.26-6.55,3.4-9.82,5.68-16.36c0.46-0.02,0.69-0.03,1.14-0.04c2.11,6.62,3.16,9.93,5.26,16.56c-0.31,0-0.46-0.01-0.77-0.01
			C555.44,40.79,555.18,40,554.67,38.41z M551.46,23.09c-1.93-1.28-2.89-1.93-4.82-3.21c0.24-0.29,0.36-0.44,0.6-0.73
			c1.85,1.36,2.78,2.05,4.63,3.41C551.7,22.78,551.62,22.88,551.46,23.09z M554.44,37.71c-1.42-4.47-2.13-6.71-3.55-11.18
			c-1.55,4.43-2.33,6.65-3.87,11.08C549.99,37.64,551.47,37.66,554.44,37.71z"/>
		<path fill="#FFFFFF" d="M20.78,126.34c1.69-0.39,3.33-0.73,5.07-1.04c3.24-0.56,7.36,1.27,8.29,7.32
			c1.04,6.72-3.42,8.75-6.05,9.16c-1.9,0.3-2.85,0.45-4.75,0.75C22.32,136.05,21.8,132.81,20.78,126.34z M27.67,139.32
			c2.87-0.45,4.47-2.55,3.9-6.24c-0.6-3.84-2.96-5.72-5.52-5.28c-0.85,0.15-1.55,0.27-2.36,0.46c0.72,4.56,1.08,6.84,1.8,11.4
			C26.36,139.52,26.8,139.45,27.67,139.32z"/>
		<path fill="#FFFFFF" d="M42.37,139.58c-1.02,0.15-1.52,0.23-2.54,0.39c-0.99-6.51-1.49-9.76-2.49-16.27
			c1.01-0.2,1.52-0.3,2.54-0.51C40.87,129.75,41.37,133.02,42.37,139.58z"/>
		<path fill="#FFFFFF" d="M80.96,129.2c0.26,1.87,0.39,2.8,0.65,4.67c-6.56,0.91-9.84,1.38-16.39,2.32
			c-1.57-10.84-3.13-21.68-4.7-32.52c2.04-0.39,3.06-0.58,5.11-0.97c1.34,9.37,2.67,18.73,4.01,28.1
			C74.16,130.15,76.42,129.83,80.96,129.2z"/>
		<path fill="#FFFFFF" d="M89.96,104.13c0.54,4.02,0.81,6.02,1.36,10.04c4.41-0.6,6.61-0.89,11.02-1.47
			c0.25,1.87,0.37,2.8,0.61,4.67c-4.4,0.58-6.6,0.87-11.01,1.47c0.47,3.48,0.7,5.22,1.17,8.7c6.07-0.82,9.1-1.22,15.18-2.01
			c0.24,1.87,0.36,2.8,0.61,4.67c-8.05,1.05-12.08,1.58-20.12,2.68c-1.49-10.89-2.98-21.78-4.47-32.67
			c8.13-1.11,12.2-1.65,20.33-2.71c0.24,1.85,0.36,2.77,0.6,4.61C99.14,102.9,96.08,103.31,89.96,104.13z"/>
		<path fill="#FFFFFF" d="M130.73,99.08c-3.29,0.4-4.94,0.6-8.23,1.01c1.16,9.31,2.32,18.62,3.47,27.93
			c-2.04,0.25-3.06,0.38-5.09,0.64c-1.17-9.31-2.35-18.62-3.52-27.93c-3.27,0.41-4.9,0.62-8.16,1.04c-0.25-1.92-0.37-2.87-0.62-4.79
			c8.62-1.11,12.93-1.65,21.56-2.7C130.38,96.2,130.5,97.16,130.73,99.08z"/>
		<path fill="#FFFFFF" d="M153.91,96.34c-3.29,0.38-4.94,0.57-8.23,0.95c1.09,9.32,2.18,18.64,3.27,27.96
			c-2.04,0.24-3.06,0.36-5.1,0.6c-1.1-9.32-2.21-18.64-3.31-27.95c-3.27,0.39-4.9,0.58-8.17,0.98c-0.23-1.92-0.35-2.88-0.58-4.79
			c8.63-1.05,12.94-1.55,21.58-2.54C153.58,93.47,153.69,94.42,153.91,96.34z"/>
		<path fill="#FFFFFF" d="M160.83,111.03c-0.87-7.94-1.3-11.91-2.17-19.84c2.02-0.35,3.04-0.52,5.06-0.86
			c0.86,7.94,1.28,11.91,2.14,19.85c0.52,5.22,4.04,7.91,8.25,7.45c4.45-0.48,7-3.89,6.46-9.04c-0.86-7.91-1.3-11.87-2.16-19.79
			c2.04-0.22,3.06-0.32,5.1-0.54c0.89,8.03,1.33,12.05,2.22,20.08c0.85,8.14-3.93,13.49-11.07,14.27
			C167.68,123.35,161.75,119.16,160.83,111.03z"/>
		<path fill="#FFFFFF" d="M212.39,118.5c-2.65-3.89-3.98-5.83-6.65-9.71c-2.15,0.21-3.22,0.32-5.36,0.53
			c0.41,4.1,0.61,6.15,1.02,10.25c-2.04,0.2-3.06,0.31-5.1,0.51c-1.1-10.88-2.21-21.76-3.31-32.63c3.5-0.59,6.61-1.05,10.1-1.42
			c5.11-0.54,11.77,2,12.56,10.39c0.46,4.92-1.62,8.61-4.77,10.69c2.97,4.33,4.45,6.49,7.41,10.83
			C215.92,118.16,214.74,118.27,212.39,118.5z M199.92,104.81c1.93-0.19,2.9-0.29,4.83-0.48c3.2-0.31,6.18-2.85,5.76-7.3
			c-0.43-4.51-3.39-6.49-7.31-6.04c-1.61,0.19-2.96,0.35-4.59,0.63C199.13,96.9,199.4,99.53,199.92,104.81z"/>
		<path fill="#FFFFFF" d="M228.53,88.55c0.36,4.04,0.54,6.05,0.91,10.09c4.42-0.4,6.64-0.59,11.06-0.98
			c0.16,1.88,0.24,2.82,0.41,4.69c-4.42,0.38-6.63,0.58-11.05,0.97c0.31,3.5,0.47,5.24,0.79,8.74c6.09-0.55,9.14-0.82,15.23-1.33
			c0.16,1.88,0.24,2.82,0.4,4.69c-8.08,0.69-12.12,1.04-20.2,1.78c-1-10.95-2.01-21.89-3.01-32.84c8.16-0.75,12.24-1.11,20.41-1.8
			c0.16,1.85,0.24,2.78,0.39,4.63C237.74,87.73,234.67,88,228.53,88.55z"/>
		<path fill="#FFFFFF" d="M268.48,99.42c0.16,2.02,0.23,3.03,0.39,5.05c2.21-0.17,3.31-0.26,5.52-0.42
			c0.07,0.94,0.11,1.41,0.18,2.35c-2.21,0.17-3.31,0.25-5.51,0.42c0.14,1.75,0.2,2.62,0.34,4.37c3.04-0.24,4.57-0.35,7.61-0.58
			c0.07,0.94,0.11,1.41,0.18,2.35c-4.04,0.3-6.06,0.46-10.1,0.77c-0.51-6.57-0.77-9.86-1.29-16.43c4.06-0.32,6.09-0.47,10.16-0.78
			c0.07,0.93,0.1,1.39,0.17,2.32C273.07,99.06,271.54,99.18,268.48,99.42z"/>
		<path fill="#FFFFFF" d="M296.16,95.59c-0.03-0.42-0.04-0.63-0.07-1.06c-0.74-10.81,5.94-16.7,13.12-17.16
			c5.29-0.34,10.04,2.32,12.52,7.07c-1.78,0.86-2.66,1.29-4.44,2.16c-1.7-2.9-4.48-4.5-7.77-4.29c-4.37,0.28-8.9,3.77-8.35,11.88
			c0.03,0.42,0.04,0.63,0.07,1.06c0.54,8.11,5.46,10.97,9.74,10.69c3.38-0.22,6.03-2.27,7.16-5.52c1.88,0.66,2.82,1,4.71,1.66
			c-1.8,5.36-6.2,8.46-11.49,8.8C304.25,111.33,296.9,106.4,296.16,95.59z"/>
		<path fill="#FFFFFF" d="M329.13,93.51c-0.02-0.42-0.04-0.63-0.06-1.06c-0.63-10.82,5.87-16.62,13.18-17.01
			c7.3-0.39,14.45,4.69,14.98,15.51c0.02,0.42,0.03,0.64,0.05,1.06c0.53,10.82-6.01,16.57-13.24,16.95
			C336.81,109.34,329.76,104.32,329.13,93.51z M352.19,92.26c-0.02-0.42-0.03-0.63-0.05-1.06c-0.43-8.41-5.14-11.36-9.64-11.12
			c-4.5,0.24-8.81,3.67-8.34,12.08c0.02,0.42,0.04,0.63,0.06,1.06c0.47,8.35,5.11,11.33,9.58,11.09
			C348.25,104.07,352.61,100.61,352.19,92.26z"/>
		<path fill="#FFFFFF" d="M390.29,73.59c0.42,10.96,0.84,21.93,1.25,32.89c-1.88,0.07-2.82,0.11-4.7,0.18
			c-5.42-7.81-10.88-15.6-16.37-23.36c0.43,9.6,0.64,14.4,1.07,24c-2.05,0.09-3.07,0.14-5.12,0.23c-0.5-10.92-1.01-21.84-1.51-32.77
			c1.94-0.18,2.92-0.28,4.86-0.46c5.47,7.8,10.9,15.63,16.3,23.48c-0.38-9.6-0.57-14.4-0.95-24.01
			C387.19,73.71,388.22,73.67,390.29,73.59z"/>
		<path fill="#FFFFFF" d="M424.03,72.49c-3.48,11.07-6.94,22.15-10.37,33.24c-2.05,0.06-3.07,0.1-5.12,0.16
			c-4.11-10.85-8.24-21.68-12.4-32.51c2.11-0.19,3.17-0.29,5.29-0.48c3.82,10.29,5.71,15.43,9.48,25.73
			c3.1-10.49,4.67-15.74,7.82-26.22C420.84,72.43,421.9,72.45,424.03,72.49z"/>
		<path fill="#FFFFFF" d="M435.04,76.8c0.1,4.05,0.15,6.08,0.24,10.13c4.44-0.11,6.66-0.16,11.09-0.25c0.04,1.88,0.06,2.83,0.1,4.71
			c-4.43,0.09-6.65,0.14-11.08,0.24c0.08,3.51,0.13,5.26,0.21,8.77c6.11-0.15,9.16-0.21,15.27-0.33c0.04,1.88,0.05,2.83,0.09,4.71
			c-8.1,0.15-12.15,0.24-20.25,0.45c-0.28-10.99-0.56-21.98-0.84-32.97c8.19-0.21,12.28-0.3,20.47-0.46
			c0.04,1.86,0.05,2.79,0.09,4.65C444.27,76.59,441.19,76.65,435.04,76.8z"/>
		<path fill="#FFFFFF" d="M475.13,104.43c-2.31-4.1-3.47-6.14-5.8-10.24c-2.15,0.03-3.23,0.04-5.38,0.07
			c0.06,4.12,0.09,6.18,0.15,10.3c-2.05,0.03-3.07,0.05-5.12,0.08c-0.18-10.93-0.36-21.86-0.54-32.8c3.53-0.29,6.66-0.49,10.17-0.56
			c5.13-0.11,11.54,2.99,11.62,11.41c0.05,4.95-2.34,8.44-5.65,10.25c2.59,4.56,3.88,6.85,6.46,11.42
			C478.68,104.39,477.49,104.4,475.13,104.43z M463.88,89.73c1.94-0.03,2.91-0.04,4.84-0.07c3.21-0.04,6.39-2.32,6.34-6.79
			c-0.05-4.53-2.82-6.76-6.77-6.63c-1.61,0.05-2.98,0.1-4.62,0.24C463.76,81.78,463.8,84.43,463.88,89.73z"/>
		<path fill="#FFFFFF" d="M487.18,95.89c1.98-0.53,2.97-0.8,4.95-1.33c0.38,2.65,2.56,4.93,5.76,4.92c3.38-0.01,5.35-1.98,5.3-4.61
			c-0.12-6.61-15.76-4.76-15.83-14.94c-0.04-5.01,4.57-8.93,10.42-8.95c5.67-0.02,10.18,3.63,10.85,8.28
			c-1.9,0.47-2.84,0.71-4.74,1.18c-0.61-3-3.17-4.53-5.79-4.52c-3.28,0.01-5.19,2.17-5.03,4.2c0.48,6.08,15.55,4.14,15.56,14.97
			c0,5.12-3.85,9.42-10.54,9.44C492.07,104.57,487.88,100.6,487.18,95.89z"/>
		<path fill="#FFFFFF" d="M533.23,97.96c-5.29-0.04-7.94-0.05-13.23-0.07c-0.78,2.54-1.17,3.81-1.95,6.35
			c-2.05-0.01-3.07-0.01-5.12-0.01c3.5-10.91,7.02-21.82,10.57-32.71c2.58-0.13,3.88-0.19,6.46-0.32
			c3.45,11.05,6.88,22.11,10.28,33.18c-2.05-0.02-3.07-0.03-5.12-0.05C534.36,101.78,533.98,100.51,533.23,97.96z M531.87,93.41
			c-2.03-6.8-3.06-10.2-5.11-16.99c-2.15,6.77-3.22,10.16-5.35,16.94C525.59,93.37,527.68,93.38,531.87,93.41z"/>
		<path fill="#FFFFFF" d="M566.6,100.09c-0.03,1.86-0.05,2.79-0.08,4.65c-8.78-0.16-13.16-0.22-21.94-0.32
			c0.02-1.98,0.03-2.97,0.05-4.95c5.48-7.72,11-15.42,16.56-23.1c-6.5-0.11-9.74-0.15-16.24-0.22c0.02-1.86,0.03-2.79,0.05-4.65
			c8.82,0.1,13.23,0.16,22.05,0.32c-0.04,2.03-0.06,3.04-0.09,5.06c-5.51,7.62-10.98,15.27-16.42,22.95
			C556.96,99.92,560.17,99.97,566.6,100.09z"/>
		<path fill="#FFFFFF" d="M579.59,105.01c-2.05-0.05-3.07-0.07-5.12-0.11c0.23-10.97,0.45-21.94,0.68-32.91
			c2.07-0.05,3.11-0.08,5.18-0.12C580.08,82.91,579.84,93.96,579.59,105.01z"/>
		<path fill="#FFFFFF" d="M588.97,89.27c0.01-0.42,0.02-0.64,0.03-1.06c0.27-10.83,7.23-16.08,14.54-15.86
			c7.31,0.22,14.01,5.87,13.63,16.7c-0.01,0.42-0.02,0.64-0.04,1.06c-0.37,10.83-7.37,16.01-14.6,15.79S588.7,100.1,588.97,89.27z
			 M612.05,89.94c0.01-0.42,0.02-0.64,0.03-1.06c0.27-8.42-4.18-11.74-8.68-11.88c-4.5-0.13-9.09,2.92-9.31,11.34
			c-0.01,0.42-0.02,0.64-0.03,1.06c-0.22,8.36,4.15,11.72,8.62,11.85C607.14,101.38,611.78,98.29,612.05,89.94z"/>
		<path fill="#FFFFFF" d="M651.57,74.5c-0.49,10.96-0.99,21.92-1.48,32.89c-1.88-0.08-2.82-0.13-4.7-0.21
			c-4.75-8.23-9.54-16.45-14.37-24.64c-0.37,9.6-0.56,14.41-0.93,24.01c-2.05-0.08-3.07-0.12-5.12-0.19
			c0.4-10.93,0.81-21.85,1.21-32.78c1.95-0.02,2.93-0.03,4.88-0.05c4.8,8.23,9.57,16.48,14.3,24.75c0.42-9.6,0.63-14.4,1.04-24
			C648.46,74.36,649.5,74.41,651.57,74.5z"/>
		<path fill="#FFFFFF" d="M665.68,108.13c-2.05-0.1-3.07-0.15-5.12-0.25c0.53-10.96,1.06-21.92,1.59-32.88
			c2.07,0.01,3.11,0.01,5.19,0.02C666.79,86.05,666.24,97.09,665.68,108.13z"/>
		<path fill="#FFFFFF" d="M690.31,101.02c2.01-0.4,3.02-0.6,5.03-1c0.2,2.67,2.24,5.09,5.43,5.28c3.38,0.21,5.47-1.62,5.59-4.25
			c0.31-6.6-15.42-5.77-14.83-15.94c0.29-5,5.14-8.61,10.98-8.25c5.66,0.35,9.92,4.28,10.29,8.97c-1.92,0.35-2.88,0.52-4.81,0.87
			c-0.42-3.04-2.87-4.72-5.48-4.89c-3.28-0.2-5.32,1.83-5.29,3.87c0.08,6.1,15.26,5.14,14.56,15.95c-0.33,5.11-4.46,9.15-11.14,8.74
			C694.63,110,690.71,105.77,690.31,101.02z"/>
		<path fill="#FFFFFF" d="M718.76,95.25c0.03-0.42,0.04-0.63,0.07-1.06c0.72-10.81,8.14-15.75,15.32-15.23
			c5.29,0.38,9.63,3.66,11.45,8.69c-1.88,0.61-2.81,0.92-4.69,1.54c-1.29-3.11-3.84-5.07-7.12-5.3c-4.37-0.31-9.33,2.53-9.88,10.64
			c-0.03,0.42-0.04,0.63-0.07,1.06c-0.56,8.11,3.93,11.6,8.21,11.91c3.37,0.24,6.28-1.43,7.84-4.51c1.78,0.91,2.67,1.37,4.44,2.28
			c-2.5,5.07-7.28,7.54-12.58,7.17C724.66,111.93,718.04,106.06,718.76,95.25z"/>
		<path fill="#FFFFFF" d="M757.7,114.11c-2.04-0.16-3.07-0.24-5.11-0.4c0.86-10.94,1.71-21.88,2.57-32.82
			c2.07,0.07,3.11,0.1,5.19,0.17C759.46,92.07,758.58,103.09,757.7,114.11z"/>
		<path fill="#FFFFFF" d="M775.55,87.16c-0.34,4.04-0.51,6.06-0.86,10.09c4.43,0.38,6.64,0.57,11.06,0.96
			c-0.17,1.88-0.25,2.82-0.42,4.69c-4.42-0.39-6.63-0.58-11.05-0.96c-0.3,3.5-0.45,5.25-0.74,8.74c6.09,0.52,9.14,0.78,15.23,1.33
			c-0.17,1.88-0.25,2.82-0.42,4.69c-8.08-0.73-12.12-1.08-20.2-1.75c0.91-10.95,1.82-21.91,2.74-32.86
			c8.17,0.68,12.25,1.03,20.41,1.77c-0.17,1.85-0.25,2.78-0.42,4.63C784.76,87.94,781.69,87.68,775.55,87.16z"/>
		<path fill="#FFFFFF" d="M824.69,87.1c-1.1,10.92-2.2,21.84-3.3,32.75c-1.87-0.19-2.81-0.28-4.68-0.47
			c-4.3-8.48-8.63-16.95-13.01-25.39c-0.9,9.57-1.35,14.35-2.25,23.92c-2.04-0.19-3.06-0.29-5.11-0.48
			c1.01-10.89,2.01-21.77,3.02-32.66c1.95,0.09,2.93,0.13,4.88,0.22c4.35,8.48,8.65,16.98,12.92,25.5
			c0.95-9.56,1.42-14.35,2.37-23.91C821.6,86.79,822.63,86.89,824.69,87.1z"/>
		<path fill="#FFFFFF" d="M851.6,94.72c-3.29-0.36-4.94-0.54-8.24-0.89c-1,9.33-1.99,18.66-2.99,27.99
			c-2.04-0.22-3.06-0.33-5.1-0.54c0.98-9.33,1.96-18.66,2.94-27.99c-3.27-0.34-4.91-0.51-8.18-0.85c0.2-1.92,0.3-2.88,0.49-4.8
			c8.64,0.89,12.96,1.34,21.6,2.29C851.91,91.84,851.81,92.8,851.6,94.72z"/>
		<path fill="#FFFFFF" d="M859.93,123.97c-2.04-0.23-3.06-0.35-5.1-0.57c1.22-10.91,2.43-21.81,3.65-32.72
			c2.07,0.14,3.11,0.21,5.18,0.35C862.42,102.01,861.18,112.99,859.93,123.97z"/>
		<path fill="#FFFFFF" d="M878.79,97.7c-0.5,4.26-0.76,6.39-1.26,10.64c4.22,0.5,6.33,0.75,10.55,1.27
			c-0.23,1.87-0.34,2.81-0.57,4.68c-4.21-0.51-6.32-0.77-10.54-1.26c-0.6,5.1-0.9,7.65-1.51,12.75c-2.04-0.24-3.06-0.36-5.1-0.6
			c1.27-10.92,2.55-21.84,3.82-32.76c8.17,0.95,12.25,1.44,20.42,2.45c-0.23,1.87-0.35,2.8-0.58,4.67
			C887.94,98.79,884.89,98.42,878.79,97.7z"/>
		<path fill="#FFFFFF" d="M901.54,128.97c-2.04-0.26-3.06-0.39-5.09-0.64c1.36-10.89,2.73-21.78,4.09-32.66
			c2.07,0.16,3.11,0.25,5.18,0.42C904.32,107.04,902.93,118,901.54,128.97z"/>
		<path fill="#FFFFFF" d="M912.34,114.26c0.05-0.42,0.08-0.63,0.14-1.05c1.39-10.75,9.11-15.21,16.26-14.25
			c5.26,0.71,9.4,4.25,10.91,9.39c-1.91,0.5-2.87,0.74-4.78,1.24c-1.1-3.18-3.52-5.3-6.78-5.73c-4.35-0.58-9.48,1.95-10.54,10.01
			c-0.06,0.42-0.08,0.63-0.14,1.05c-1.06,8.06,3.2,11.83,7.46,12.4c3.36,0.45,6.37-1.04,8.12-4.01c1.72,1.02,2.58,1.53,4.3,2.55
			c-2.82,4.9-7.75,7.07-13.02,6.37C917.2,131.28,910.94,125.01,912.34,114.26z"/>
		<path fill="#FFFFFF" d="M971.62,105.33c-1.61,10.87-3.23,21.75-4.84,32.62c-2.03-0.3-3.05-0.45-5.08-0.75
			c0.73-4.99,1.1-7.48,1.83-12.47c-4.9-0.72-7.35-1.07-12.25-1.77c-0.71,4.99-1.07,7.49-1.78,12.48c-2.03-0.29-3.05-0.43-5.09-0.72
			c1.53-10.83,3.05-21.65,4.58-32.48c2.07,0.2,3.1,0.3,5.17,0.5c-0.87,6.11-1.31,9.16-2.18,15.27c4.91,0.7,7.36,1.06,12.27,1.78
			c0.89-6.08,1.34-9.12,2.23-15.21C968.54,104.87,969.57,105.02,971.62,105.33z"/>
		<path fill="#FFFFFF" d="M985.84,112.18c-0.61,4-0.92,6.01-1.54,10.01c4.4,0.67,6.6,1.02,11,1.71c-0.29,1.86-0.44,2.79-0.73,4.65
			c-4.39-0.69-6.59-1.03-10.98-1.7c-0.53,3.47-0.8,5.2-1.33,8.67c6.06,0.93,9.08,1.4,15.14,2.36c-0.29,1.86-0.44,2.79-0.74,4.65
			c-8.03-1.27-12.04-1.89-20.07-3.11c1.65-10.87,3.3-21.74,4.95-32.6c8.12,1.23,12.18,1.86,20.29,3.15
			c-0.29,1.84-0.44,2.76-0.73,4.59C994.99,113.59,991.94,113.11,985.84,112.18z"/>
		<path fill="#FFFFFF" d="M466.25,135.28c0-0.09,0-0.14,0-0.24c-0.08-5.68,3.11-8.32,6.73-8.36c2.78-0.03,5.14,1.8,5.82,4.26
			c-0.29,0.09-0.43,0.13-0.71,0.21c-0.59-2.2-2.64-3.8-5.09-3.77c-3.2,0.04-6.07,2.35-6,7.64c0,0.09,0,0.14,0,0.24
			c0.07,5.27,2.99,7.49,6.15,7.46c2.92-0.03,5.48-2.33,5.44-6.57c0-0.11,0-0.16,0-0.26c-2.3,0.02-3.45,0.04-5.76,0.06
			c0-0.28-0.01-0.42-0.01-0.71c2.6-0.03,3.9-0.05,6.5-0.07c0,0.39,0.01,0.58,0.01,0.97c0.05,4.65-2.87,7.27-6.15,7.31
			C469.58,143.51,466.33,140.96,466.25,135.28z"/>
		<path fill="#FFFFFF" d="M485.05,127.42c0.02,3.07,0.04,4.61,0.06,7.68c2.54-0.02,3.81-0.03,6.35-0.04c0,0.28,0,0.42,0,0.71
			c-2.54,0.02-3.81,0.02-6.35,0.04c0.02,2.67,0.03,4.01,0.05,6.68c3.33-0.03,5-0.04,8.33-0.06c0,0.28,0,0.42,0,0.71
			c-3.62,0.02-5.43,0.03-9.05,0.06c-0.05-6.59-0.08-9.89-0.14-16.48c3.64-0.03,5.46-0.04,9.09-0.06c0,0.28,0,0.42,0,0.71
			C490.07,127.38,488.4,127.39,485.05,127.42z"/>
		<path fill="#FFFFFF" d="M509.49,126.67c0,6.57,0,9.86,0,16.43c-0.3,0-0.45,0-0.74,0c-4.01-6.13-6.03-9.2-10.08-15.32
			c0.02,6.13,0.03,9.2,0.06,15.34c-0.3,0-0.45,0-0.74,0c-0.03-6.57-0.04-9.86-0.06-16.43c0.35-0.01,0.52-0.02,0.87-0.03
			c4.01,6.04,6,9.06,9.97,15.11c0-6.04,0-9.06-0.01-15.1C509.04,126.67,509.19,126.67,509.49,126.67z"/>
		<path fill="#FFFFFF" d="M514.56,135.12c0-0.21,0-0.32,0-0.53c0.01-5.53,3.39-8.12,6.71-8.11c3.29,0.01,6.69,2.62,6.65,8.16
			c0,0.21,0,0.32,0,0.53c-0.03,5.53-3.44,8.1-6.71,8.09C517.92,143.25,514.56,140.66,514.56,135.12z M527.18,135.17
			c0-0.21,0-0.32,0-0.53c0.03-5.15-3.01-7.43-5.91-7.44c-2.9-0.01-5.96,2.25-5.96,7.4c0,0.21,0,0.32,0,0.53
			c-0.01,5.12,3.02,7.39,5.88,7.4C524.11,142.54,527.16,140.29,527.18,135.17z"/>
		<path fill="#FFFFFF" d="M542.7,126.78c-2.33,6.57-3.49,9.86-5.8,16.43c-0.29,0-0.43,0-0.71-0.01c-2.19-6.61-3.3-9.92-5.51-16.53
			c0.3-0.02,0.45-0.03,0.75-0.05c2.06,6.05,3.09,9.08,5.13,15.14c2.15-6.01,3.23-9.01,5.4-15.02
			C542.25,126.76,542.4,126.77,542.7,126.78z"/>
		<path fill="#FFFFFF" d="M553,139.45c-3.06-0.04-4.59-0.06-7.66-0.1c-0.53,1.57-0.8,2.36-1.32,3.93c-0.3,0-0.45,0-0.74-0.01
			c2.19-6.55,3.29-9.82,5.5-16.36c0.44-0.02,0.66-0.03,1.11-0.04c2.04,6.62,3.06,9.93,5.08,16.56c-0.3,0-0.45-0.01-0.74-0.01
			C553.74,141.83,553.49,141.04,553,139.45z M552.77,138.74c-1.37-4.47-2.06-6.71-3.43-11.17c-1.5,4.43-2.25,6.65-3.75,11.08
			C548.46,138.68,549.9,138.7,552.77,138.74z"/>
	</g>
</g>
</svg>
